#!OML:ASF H:\Pregnant\Project 1\Capture day 1\Session 1\femalepreg.ASF
:FULLY-SPECIFIED
:DEGREES
376
root 3.57451 16.0137 11.6071 19.8172 -12.2433 0.00128334
lowerback -17.8244 -1.21515 -1.6596
upperback -7.12042 -1.44473 1.64297
thorax 2.44138 -0.699316 2.39169
lowerneck -20.8512 -3.19496 -1.35179
upperneck 25.2074 -4.71388 1.95148
head 11.8038 -2.0053 0.188101
rclavicle 3.20292e-014 1.43125e-014
rhumerus -33.3466 10.6603 -86.4678
rradius 26.7483
rwrist -2.89932
rhand -17.4945 -14.1154
rfingers 7.12502
rthumb 8.75818 -43.9137
lclavicle 3.20292e-014 1.43125e-014
lhumerus -41.4269 -9.57361 89.1385
lradius 33.3957
lwrist 37.5977
lhand -22.9684 1.18177
lfingers 7.12502
lthumb 3.47358 31.1332
rfemur -30.7614 22.3578 7.26383
rtibia 28.8077
rfoot -10.9461 -25.6576
rtoes -16.8187
lfemur -10.7852 -4.69863 -17.0463
ltibia -1.11319e-014
lfoot -5.07762 19.5004
ltoes -0.087147
377
root 3.57236 16.0117 11.6286 19.7763 -12.2404 0.0145185
lowerback -17.9483 -1.22171 -1.65634
upperback -7.13763 -1.45265 1.64223
thorax 2.48785 -0.703704 2.38607
lowerneck -20.8101 -3.1853 -1.35324
upperneck 25.2986 -4.71255 1.97845
head 11.8319 -2.00093 0.198624
rclavicle 2.92586e-014 4.37326e-015
rhumerus -33.1204 9.25735 -85.825
rradius 25.6472
rwrist -2.16096
rhand -17.4936 -14.4174
rfingers 7.12502
rthumb 8.75907 -44.2157
lclavicle 2.92586e-014 4.37326e-015
lhumerus -41.5416 -9.4551 89.2377
lradius 32.5043
lwrist 37.3512
lhand -22.6952 1.59124
lfingers 7.12502
lthumb 3.73745 31.5382
rfemur -30.6291 22.4363 7.27845
rtibia 28.8132
rfoot -10.9755 -25.7354
rtoes -16.9091
lfemur -10.6655 -4.71401 -17.0836
ltibia -2.38542e-014
lfoot -5.0785 19.5084
ltoes -0.353015
378
root 3.57022 16.01 11.6498 19.7471 -12.2338 0.022896
lowerback -18.0764 -1.22517 -1.65049
upperback -7.15963 -1.45686 1.64078
thorax 2.53103 -0.706222 2.37894
lowerneck -20.7664 -3.1816 -1.37675
upperneck 25.3893 -4.72099 2.03494
head 11.861 -1.99918 0.222262
rclavicle -3.71479e-014 -9.14409e-015
rhumerus -32.9514 7.84551 -85.1649
rradius 24.6282
rwrist -1.40355
rhand -17.4549 -14.7926
rfingers 7.12502
rthumb 8.79635 -44.5892
lclavicle -3.71479e-014 -9.14409e-015
lhumerus -41.6724 -9.33545 89.325
lradius 31.6441
lwrist 37.0756
lhand -22.3981 2.02855
lfingers 7.12502
lthumb 4.02438 31.9703
rfemur -30.5104 22.5155 7.29468
rtibia 28.8182
rfoot -10.994 -25.8202
rtoes -17.0015
lfemur -10.5596 -4.73023 -17.1128
ltibia -6.36111e-015
lfoot -5.07806 19.5166
ltoes -0.604508
379
root 3.56824 16.0084 11.6706 19.7316 -12.2229 0.0231529
lowerback -18.21 -1.22276 -1.63483
upperback -7.18337 -1.45483 1.63586
thorax 2.57455 -0.705795 2.36376
lowerneck -20.7221 -3.18741 -1.3855
upperneck 25.4707 -4.74397 2.07865
head 11.8859 -2.0043 0.236415
rclavicle 1.46604e-015 5.1684e-015
rhumerus -32.8422 6.46649 -84.5111
rradius 23.7039
rwrist -0.690518
rhand -17.4142 -15.2183
rfingers 7.12502
rthumb 8.83568 -45.0133
lclavicle 1.46604e-015 5.1684e-015
lhumerus -41.8131 -9.2255 89.3988
lradius 30.8202
lwrist 36.7779
lhand -22.0952 2.44526
lfingers 7.12502
lthumb 4.31681 32.3813
rfemur -30.4047 22.5899 7.31593
rtibia 28.8202
rfoot -11.0096 -25.9051
rtoes -17.0803
lfemur -10.4674 -4.7466 -17.1305
ltibia -1.11319e-014
lfoot -5.08196 19.5237
ltoes -0.821754
380
root 3.56655 16.0071 11.6911 19.7327 -12.2136 0.0118175
lowerback -18.3517 -1.21291 -1.60589
upperback -7.2073 -1.44518 1.62911
thorax 2.62129 -0.701808 2.34056
lowerneck -20.6949 -3.19992 -1.40228
upperneck 25.5548 -4.77826 2.13743
head 11.9162 -2.01299 0.255411
rclavicle 1.49834e-014 1.98785e-015
rhumerus -32.7898 5.16073 -83.8787
rradius 22.8759
rwrist -0.0548781
rhand -17.412 -15.6597
rfingers 7.12502
rthumb 8.83779 -45.4546
lclavicle 1.49834e-014 1.98785e-015
lhumerus -41.9581 -9.11472 89.4532
lradius 30.0374
lwrist 36.441
lhand -21.7886 2.83795
lfingers 7.12502
lthumb 4.61286 32.7677
rfemur -30.3157 22.6595 7.3426
rtibia 28.8157
rfoot -11.0211 -25.9831
rtoes -17.1408
lfemur -10.3904 -4.75642 -17.1353
ltibia -1.90833e-014
lfoot -5.09088 19.5287
ltoes -0.994921
381
root 3.56508 16.0059 11.7115 19.7429 -12.2024 -0.0121177
lowerback -18.4969 -1.19633 -1.5618
upperback -7.22868 -1.42924 1.6204
thorax 2.67177 -0.694966 2.30791
lowerneck -20.6749 -3.22195 -1.39526
upperneck 25.6292 -4.82672 2.17217
head 11.9432 -2.02886 0.259125
rclavicle -2.33324e-014 -7.95139e-015
rhumerus -32.7969 3.95798 -83.2816
rradius 22.1517
rwrist 0.486192
rhand -17.4532 -16.0765
rfingers 7.12502
rthumb 8.79802 -45.8731
lclavicle -2.33324e-014 -7.95139e-015
lhumerus -42.1081 -9.00147 89.4865
lradius 29.2999
lwrist 36.0654
lhand -21.4831 3.18792
lfingers 7.12502
lthumb 4.90787 33.1111
rfemur -30.2308 22.7285 7.38049
rtibia 28.8034
rfoot -11.0271 -26.0603
rtoes -17.1955
lfemur -10.3186 -4.76305 -17.1258
ltibia 1.43125e-014
lfoot -5.10667 19.5329
ltoes -1.13443
382
root 3.56383 16.0047 11.732 19.7587 -12.1909 -0.0489208
lowerback -18.6407 -1.17437 -1.50479
upperback -7.25045 -1.40874 1.61376
thorax 2.72067 -0.685975 2.27114
lowerneck -20.6603 -3.25052 -1.39357
upperneck 25.7024 -4.8838 2.21059
head 11.9712 -2.04853 0.263612
rclavicle 3.40419e-015 -5.96354e-015
rhumerus -32.8655 2.88162 -82.7222
rradius 21.5289
rwrist 0.945674
rhand -17.4999 -16.4693
rfingers 7.12502
rthumb 8.75298 -46.2678
lclavicle 3.40419e-015 -5.96354e-015
lhumerus -42.2764 -8.88595 89.5094
lradius 28.6169
lwrist 35.6707
lhand -21.2052 3.4454
lfingers 7.12502
lthumb 5.17623 33.3622
rfemur -30.1446 22.7991 7.43104
rtibia 28.7828
rfoot -11.0312 -26.1358
rtoes -17.2418
lfemur -10.2465 -4.76508 -17.1027
ltibia -1.90833e-014
lfoot -5.13409 19.5345
ltoes -1.22631
